# xmcd
#
# Track frame offsets:
#	150
#	15005
#	30827
#	47416
#	62002
#	77743
#	93530
#	106890
#	121646
#	136954
#	153077
#	171632
#	184915
#	201794
#	218356
#	236138
#	255820
#	270181
#	288196
#	309462
#
# Disc length: 4242 seconds
#
# Revision: 0
# Processed by: cddbd v1.5.2PL0 Copyright (c) Steve Scherf et al.
# Submitted via: EasyCDDAExtractor 16.0.6.1
#
DISCID=ef109014
DTITLE=Συλλογικός δίσκος - Λαϊκά 2011 1
DYEAR=2011
DGENRE=Λαϊκή
TTITLE0=Καρράς Βασίλης - Αχ, μοναξιά μου [Β. Γαβριηλίδης-Β. Καρράς]
TTITLE1=Μπάσης Δημήτρης - Σώσε με [Ν. Καρβέλας]
TTITLE2=Παπαδοπούλου Πίτσα - Απαγορεύεται [Π. Στεργίου-Φ. Θεοδώρου]
TTITLE3=Μαργαρίτης Γιώργος - Γιά κοίτα, κόσμε [Β. Τσιτσάνης]
TTITLE4=Γονίδης Σταμάτης - Πιο μαζί από ποτέ [Κ. Παπαδόπουλος-Η. Φιλίππου]
TTITLE5=Λιδάκης Μανώλης - Το χτύπημα [Χ.Νικολόπουλος-Β.Ατραΐδης/Γ.Βασιλ/λος]
TTITLE6=Δάρρα Φωτεινή - Δεν ξέρω, πόσο σ' αγαπώ [Α. Καλδάρας-Χ. Αργυρόπουλος]
TTITLE7=Μακεδόνας Κώστας - Ένα βράδυ, πού 'βρεχε[Ν.Γούναρης-Α.Σακελλάριος/Χ.Γι
TTITLE7=αννακ/λος]
TTITLE8=Μαρινέλλα - Δε θα ξαναγαπήσω [Μ. Λοΐζος-Λ. Παπαδόπουλος]
TTITLE9=Μακρόπουλος Νίκος - Τίποτα δεν είναι δεδομένο [Β. Δαραμούσκας-Σ. Μαργω
TTITLE9=μένος]
TTITLE10=Ζαζόπουλος Αλέκος - Αστέρι μου [Πάνος Καπίρης]
TTITLE11=Γιαννιάς Γιώργος - Υποφέρω [Κ. Παπαδόπουλος-Β.Γιαννόπουλος/Γ.Γιαννιάς
TTITLE11=]
TTITLE12=Παπαδοπούλου Λένα-Αλέξανδρος - Στη αγκαλιά σου [version 2]
TTITLE13=Δανίκας Γιώργος - Κάνε μου τη χάρη [Γ. Καφετζόπουλος-Η. Φιλίππου]
TTITLE14=Κιάμος Πάνος - Δεν είσαι μόνη [Γ.Πετρίδης-Σ.Αλιβιζάτος/Π.Κιάμος]
TTITLE15=Κανέλλος Δημήτρης - Έκλαιγε μαζί μου το φεγγάρι [Α. Βαρδής-Έλενα Αντω
TTITLE15=νίου]
TTITLE16=Κούκα Κατερίνα - Έρωτας τρελλός [Β. Κορακάκης]
TTITLE17=Μπικάκης Στέλιος - Με νταούλια και ζουρνάδες [Α. Ζαχαράκης/Π.Ίμβριος-
TTITLE17=Σ. Μπικάκης]
TTITLE18=Γλυκερία - Σε εμπιστεύτηκα [Γ. Ζήκας-Β. Αλαγιάννη]
TTITLE19=Λεμπέσης Γιάννης - Αφήστε όλα τα ψεύτικα [Γ. Λεμπέσης]
EXTD=
EXTT0=
EXTT1=
EXTT2=
EXTT3=
EXTT4=
EXTT5=
EXTT6=
EXTT7=
EXTT8=
EXTT9=
EXTT10=
EXTT11=
EXTT12=
EXTT13=
EXTT14=
EXTT15=
EXTT16=
EXTT17=
EXTT18=
EXTT19=
PLAYORDER=
